<svg id="Layer_1" data-name="Layer 1" xmlns="http://www.w3.org/2000/svg" viewBox="0 0 120 120"><defs><style>.cls-1{fill:#fefefe;}.cls-2{fill:#2c3137;}.cls-3{fill:#ffd039;}.cls-4{fill:#898e91;}.cls-5{fill:#00dbdc;}.cls-6{fill:#f06047;}</style></defs><title>tributary-avatar</title><circle class="cls-1" cx="60" cy="60" r="52" transform="translate(-18.39 27.53) rotate(-22.5)"/><path class="cls-1" d="M114.83,58.12h-8.51c-7-.06-9.77-1.07-19.64-10.85C75.89,36.6,64.22,36.56,63.75,36.59H42.2v4H63.77c.15,0,10.57.09,20.12,9.54a77.11,77.11,0,0,0,9.08,8H42.2v4h72.63c0-.7,0-1.4,0-2.1S114.85,58.75,114.83,58.12Z"/><path class="cls-2" d="M63.91,36.59H42.2v4H63.77c.15,0,10.57.09,20.12,9.54a77.11,77.11,0,0,0,9.08,8H42.2v4h72.63c0-.7,0-1.4,0-2.1s0-1.25,0-1.88h-8.51c-7-.06-9.77-1.07-19.64-10.85C76.43,37.14,65.4,36.59,63.91,36.59Z"/><path class="cls-1" d="M97.29,79.66H73.06v4H98c5.27,0,8.63-.21,12.46-2.24a50.91,50.91,0,0,0,2.3-6.34C107,79.7,104.13,79.7,97.29,79.66Z"/><path class="cls-2" d="M112.71,75.05c-5.22,4.27-8.09,4.62-13.81,4.62H73.06v4H98c5.27,0,8.63-.21,12.46-2.24a50.91,50.91,0,0,0,2.3-6.34Z"/><circle class="cls-3" cx="42.18" cy="38.35" r="7.43"/><path class="cls-4" d="M42.18,47.76a9.41,9.41,0,1,1,9.42-9.41A9.42,9.42,0,0,1,42.18,47.76Zm0-14.85a5.44,5.44,0,1,0,5.45,5.44A5.45,5.45,0,0,0,42.18,32.91Z"/><circle class="cls-5" cx="42.18" cy="60.11" r="7.43"/><path class="cls-4" d="M42.18,69.52a9.41,9.41,0,1,1,9.42-9.41A9.42,9.42,0,0,1,42.18,69.52Zm0-14.85a5.45,5.45,0,1,0,5.45,5.44A5.45,5.45,0,0,0,42.18,54.67Z"/><circle class="cls-6" cx="73.06" cy="81.65" r="7.43"/><path class="cls-4" d="M73.06,91.06a9.41,9.41,0,1,1,9.41-9.41A9.42,9.42,0,0,1,73.06,91.06Zm0-14.85a5.44,5.44,0,1,0,5.44,5.44A5.45,5.45,0,0,0,73.06,76.21Z"/><path class="cls-2" d="M60,16A44,44,0,1,1,16,60,44.05,44.05,0,0,1,60,16M60,0a60,60,0,1,0,60,60A60,60,0,0,0,60,0Z"/></svg>