<svg id="Layer_1" data-name="Layer 1" xmlns="http://www.w3.org/2000/svg" viewBox="0 0 302 35"><defs><style>.cls-1{fill:#fff;}.cls-2{fill:none;stroke:#383e45;}.cls-2,.cls-3,.cls-4,.cls-5{stroke-miterlimit:10;}.cls-3{fill:#ffd039;}.cls-3,.cls-4,.cls-5{stroke:#898e91;}.cls-4{fill:#00dbdc;}.cls-5{fill:#f06047;}</style></defs><title>tributary-logo</title><path class="cls-1" d="M103.29,10.22H94.16v18.7H90V10.22H80.88V6.08h22.41Z"/><path class="cls-1" d="M130,13.76a8.55,8.55,0,0,1-.35,2.53,7.06,7.06,0,0,1-.95,2,6.35,6.35,0,0,1-1.38,1.45,7.94,7.94,0,0,1-1.63,1,8.07,8.07,0,0,1-1.72.57,8.77,8.77,0,0,1-1.63.17L131,28.92h-6.4L116,21.45h-3V17.31h9.37A4.55,4.55,0,0,0,123.8,17a3.4,3.4,0,0,0,1.12-.71,3,3,0,0,0,.72-1.07,3.81,3.81,0,0,0,.26-1.44V11.14a1.23,1.23,0,0,0-.09-.53.67.67,0,0,0-.22-.27.63.63,0,0,0-.29-.1l-.28,0H111.36v18.7h-4.15V8.17a2.26,2.26,0,0,1,.16-.82,2.51,2.51,0,0,1,.44-.67,2,2,0,0,1,.66-.44,2.08,2.08,0,0,1,.83-.16H125a5,5,0,0,1,2.34.5,4.78,4.78,0,0,1,1.56,1.26,4.92,4.92,0,0,1,.86,1.63,5.93,5.93,0,0,1,.26,1.64Z"/><path class="cls-1" d="M139.17,28.92H135V6.08h4.14Z"/><path class="cls-1" d="M167.5,23.9a5.53,5.53,0,0,1-.26,1.64,4.66,4.66,0,0,1-.86,1.63,4.72,4.72,0,0,1-1.55,1.25,5.06,5.06,0,0,1-2.34.5H146.76a2,2,0,0,1-.82-.16,1.94,1.94,0,0,1-1.1-1.1,2,2,0,0,1-.16-.83V8.17a2.07,2.07,0,0,1,.16-.82,2.26,2.26,0,0,1,.43-.67,1.91,1.91,0,0,1,.67-.44,2,2,0,0,1,.82-.16h13.86a5.56,5.56,0,0,1,1.64.27,5,5,0,0,1,1.64.87,4.72,4.72,0,0,1,1.25,1.55,4.93,4.93,0,0,1,.51,2.34v.78a8.73,8.73,0,0,1-.37,2.37,7.88,7.88,0,0,1-1.18,2.4,6.75,6.75,0,0,1,1.31,1,6.6,6.6,0,0,1,1.08,1.4,7.29,7.29,0,0,1,.73,1.8,8.55,8.55,0,0,1,.27,2.22Zm-4.14-.79a4,4,0,0,0-.25-1.46,3.12,3.12,0,0,0-1.83-1.82,4.28,4.28,0,0,0-1.47-.24h-9.33V15.41H158a4.18,4.18,0,0,0,1.46-.24,3.15,3.15,0,0,0,1.12-.71,3.35,3.35,0,0,0,.71-1.11,4.14,4.14,0,0,0,.24-1.46v-.78c0-.59-.28-.89-.86-.89h-11.8V24.78h13.67l.27,0a.66.66,0,0,0,.28-.09.63.63,0,0,0,.23-.27,1.26,1.26,0,0,0,.09-.53Z"/><path class="cls-1" d="M194.05,26.83a2,2,0,0,1-.16.83,1.78,1.78,0,0,1-.44.66,2,2,0,0,1-.67.44,2.05,2.05,0,0,1-.81.16h-9.34a13.05,13.05,0,0,1-2.68-.28,12.46,12.46,0,0,1-2.62-.89A11.41,11.41,0,0,1,175,26.23,10.26,10.26,0,0,1,173,24a10.68,10.68,0,0,1-1.31-2.9,12.88,12.88,0,0,1-.48-3.64V6.08h4.14V17.5a7.8,7.8,0,0,0,.49,3,6.55,6.55,0,0,0,1.23,2,6.09,6.09,0,0,0,1.64,1.27,8.93,8.93,0,0,0,1.7.69,8.28,8.28,0,0,0,1.42.27l.8.06h7.28V6.08h4.14Z"/><path class="cls-1" d="M220.38,10.22h-9.13v18.7h-4.14V10.22H198V6.08h22.41Z"/><path class="cls-1" d="M245.87,28.92h-4.14V23.31H227.17v5.61H223V17.5a12.08,12.08,0,0,1,.86-4.6,10.63,10.63,0,0,1,2.39-3.62,10.91,10.91,0,0,1,3.62-2.36,12.08,12.08,0,0,1,4.55-.84h9.34a2.05,2.05,0,0,1,.81.16,2,2,0,0,1,.67.44,2.11,2.11,0,0,1,.44.67,2.07,2.07,0,0,1,.16.82Zm-18.7-9.75h14.56v-9h-7.28l-.8.06a8.28,8.28,0,0,0-1.42.27,8.93,8.93,0,0,0-1.7.69,6.09,6.09,0,0,0-1.64,1.27,6.49,6.49,0,0,0-1.23,2,7.82,7.82,0,0,0-.49,2.95Z"/><path class="cls-1" d="M274.22,13.76a8.55,8.55,0,0,1-.35,2.53,7.35,7.35,0,0,1-.95,2,6.81,6.81,0,0,1-1.38,1.45,7.94,7.94,0,0,1-1.63,1,8.07,8.07,0,0,1-1.72.57,8.77,8.77,0,0,1-1.63.17l8.65,7.47H268.8l-8.63-7.47h-3V17.31h9.37A4.55,4.55,0,0,0,268,17a3.51,3.51,0,0,0,1.12-.71,3,3,0,0,0,.72-1.07,3.81,3.81,0,0,0,.26-1.44V11.14a1.23,1.23,0,0,0-.09-.53.6.6,0,0,0-.51-.37l-.28,0H255.53v18.7h-4.14V8.17a2.07,2.07,0,0,1,.16-.82,2.29,2.29,0,0,1,.44-.67,1.78,1.78,0,0,1,.66-.44,2,2,0,0,1,.83-.16H269.2a5.06,5.06,0,0,1,2.34.5,4.64,4.64,0,0,1,1.55,1.26A5,5,0,0,1,274,9.47a5.93,5.93,0,0,1,.26,1.64Z"/><path class="cls-1" d="M301,13.72a8.29,8.29,0,0,1-.36,2.54,7.14,7.14,0,0,1-.95,2,6.37,6.37,0,0,1-1.37,1.46,8.29,8.29,0,0,1-1.64,1,7.28,7.28,0,0,1-1.71.56,8,8,0,0,1-1.63.18h-1.67v7.5h-4.18v-7.5h-1.65a8.14,8.14,0,0,1-1.64-.18,7.51,7.51,0,0,1-1.72-.56,7.94,7.94,0,0,1-1.63-1,6.63,6.63,0,0,1-1.38-1.46,6.8,6.8,0,0,1-1-2,8.27,8.27,0,0,1-.36-2.53V6.08h4.14v7.64a3.92,3.92,0,0,0,.25,1.46,3.23,3.23,0,0,0,.72,1.11,3.15,3.15,0,0,0,1.12.71,4.33,4.33,0,0,0,1.48.25h7.47c.39-.07.79-.15,1.21-.25a3.15,3.15,0,0,0,1.13-.52,2.68,2.68,0,0,0,.84-1,3.71,3.71,0,0,0,.34-1.74V6.08H301Z"/><line class="cls-2" x1="59.21" y1="17.56" x2="4.75" y2="17.56"/><path class="cls-2" d="M4.75,6.7H15.62a16.54,16.54,0,0,1,10.85,5.1c6.11,6.05,7.28,5.75,12.59,5.75H50.57"/><path class="cls-2" d="M66.13,17.56H55.26a16.54,16.54,0,0,0-10.85,5.1c-6.11,6.05-7.28,5.75-12.59,5.75H20.31"/><circle class="cls-3" cx="4.74" cy="6.59" r="3.74"/><circle class="cls-4" cx="4.74" cy="17.56" r="3.74"/><circle class="cls-5" cx="20.31" cy="28.41" r="3.74"/><circle class="cls-4" cx="66.13" cy="17.56" r="3.74"/></svg>