<svg id="Layer_1" data-name="Layer 1" xmlns="http://www.w3.org/2000/svg" viewBox="0 0 300 115"><defs><style>.cls-1{fill:#fff;}.cls-2{fill:none;stroke:#fff;stroke-width:3.69px;}.cls-2,.cls-3,.cls-4,.cls-5{stroke-miterlimit:10;}.cls-3{fill:#ffd039;}.cls-3,.cls-4,.cls-5{stroke:#898e91;stroke-width:3.69px;}.cls-4{fill:#00dbdc;}.cls-5{fill:#f06047;}</style></defs><title>tributary-logo-vertical</title><path class="cls-1" d="M32,87.91H19.76v25.17H14.19V87.91H1.88V82.34H32Z"/><path class="cls-1" d="M68,92.67a11.2,11.2,0,0,1-.47,3.41,9.71,9.71,0,0,1-1.27,2.65,9.39,9.39,0,0,1-1.86,2A11.4,11.4,0,0,1,62.25,102a11,11,0,0,1-4.52,1l11.64,10.06H60.76L49.14,103h-4V97.45h12.6A6.43,6.43,0,0,0,59.65,97a4.8,4.8,0,0,0,1.5-1,4.18,4.18,0,0,0,1-1.45,5.13,5.13,0,0,0,.34-1.94V89.15a1.65,1.65,0,0,0-.12-.71.87.87,0,0,0-.3-.37.93.93,0,0,0-.38-.14l-.38,0H42.9v25.17H37.32V85.14a2.89,2.89,0,0,1,.81-2,2.5,2.5,0,0,1,.89-.6,2.89,2.89,0,0,1,1.11-.21H61.29a6.73,6.73,0,0,1,3.15.67,6.43,6.43,0,0,1,2.09,1.69,6.67,6.67,0,0,1,1.16,2.2A7.56,7.56,0,0,1,68,89.11Z"/><path class="cls-1" d="M80.33,113.08H74.75V82.34h5.58Z"/><path class="cls-1" d="M118.46,106.32a7.86,7.86,0,0,1-.35,2.21,6.43,6.43,0,0,1-1.16,2.19,6.51,6.51,0,0,1-2.09,1.68,6.73,6.73,0,0,1-3.15.68H90.55a2.72,2.72,0,0,1-1.11-.22A2.61,2.61,0,0,1,88,111.38a2.72,2.72,0,0,1-.22-1.11V85.14A2.69,2.69,0,0,1,88,84.05a3,3,0,0,1,.58-.9,2.63,2.63,0,0,1,.9-.6,2.89,2.89,0,0,1,1.11-.21H109.2a7.59,7.59,0,0,1,2.21.36,6.69,6.69,0,0,1,2.2,1.17A6.53,6.53,0,0,1,115.3,86a6.73,6.73,0,0,1,.67,3.15v1a11.36,11.36,0,0,1-.49,3.18,10.65,10.65,0,0,1-1.58,3.23A10.44,10.44,0,0,1,115.66,98a9.11,9.11,0,0,1,1.45,1.89,10.57,10.57,0,0,1,1,2.42,11.59,11.59,0,0,1,.36,3Zm-5.57-1.07a5.27,5.27,0,0,0-.35-2,4.3,4.3,0,0,0-1-1.49,4.22,4.22,0,0,0-1.5-1,5.58,5.58,0,0,0-2-.33H95.54V94.9H105.6a5.58,5.58,0,0,0,2-.33,4,4,0,0,0,1.5-1,4.21,4.21,0,0,0,1-1.49,5.48,5.48,0,0,0,.33-2v-1a1,1,0,0,0-1.16-1.2H93.32V107.5h18.39a2.43,2.43,0,0,0,.36,0,.76.76,0,0,0,.39-.13.93.93,0,0,0,.3-.36,1.7,1.7,0,0,0,.13-.71Z"/><path class="cls-1" d="M154.19,110.27a2.72,2.72,0,0,1-.22,1.11,2.5,2.5,0,0,1-.6.89,2.89,2.89,0,0,1-2,.81H138.82a17.1,17.1,0,0,1-3.6-.39,16,16,0,0,1-3.53-1.19,14.73,14.73,0,0,1-3.2-2,13.27,13.27,0,0,1-2.63-2.94,14.5,14.5,0,0,1-1.77-3.9,17.41,17.41,0,0,1-.64-4.9V82.34H129V97.71a10.59,10.59,0,0,0,.66,4,8.55,8.55,0,0,0,1.66,2.73,7.84,7.84,0,0,0,2.2,1.71,11.65,11.65,0,0,0,2.29.92,11.05,11.05,0,0,0,1.91.38c.55,0,.91.07,1.08.07h9.8V82.34h5.57Z"/><path class="cls-1" d="M189.62,87.91H177.34v25.17h-5.57V87.91H159.46V82.34h30.16Z"/><path class="cls-1" d="M223.93,113.08h-5.58v-7.55H198.76v7.55h-5.57V97.71a16.25,16.25,0,0,1,1.15-6.2,14.4,14.4,0,0,1,8.09-8,16.31,16.31,0,0,1,6.13-1.13h12.56a2.82,2.82,0,0,1,1.09.21,2.54,2.54,0,0,1,.9.6,2.73,2.73,0,0,1,.6.9,2.69,2.69,0,0,1,.22,1.09ZM198.76,100h19.59v-12h-9.79c-.17,0-.53,0-1.09.07a12,12,0,0,0-1.9.38,12.31,12.31,0,0,0-2.29.92,8.07,8.07,0,0,0-2.2,1.72,8.75,8.75,0,0,0-1.67,2.73,10.88,10.88,0,0,0-.65,4Z"/><path class="cls-1" d="M262.07,92.67a11.2,11.2,0,0,1-.47,3.41,9.71,9.71,0,0,1-1.27,2.65,9.39,9.39,0,0,1-1.86,2,11.4,11.4,0,0,1-2.19,1.34,11,11,0,0,1-4.52,1l11.64,10.06h-8.61L243.17,103h-4V97.45h12.6a6.43,6.43,0,0,0,1.92-.44,4.8,4.8,0,0,0,1.5-1,4.18,4.18,0,0,0,1-1.45,5.13,5.13,0,0,0,.34-1.94V89.15a1.65,1.65,0,0,0-.12-.71.87.87,0,0,0-.3-.37.93.93,0,0,0-.38-.14l-.38,0H236.93v25.17h-5.58V85.14a2.89,2.89,0,0,1,.81-2,2.5,2.5,0,0,1,.89-.6,2.89,2.89,0,0,1,1.11-.21h21.16a6.73,6.73,0,0,1,3.15.67,6.43,6.43,0,0,1,2.09,1.69,6.67,6.67,0,0,1,1.16,2.2,7.56,7.56,0,0,1,.35,2.21Z"/><path class="cls-1" d="M298.12,92.63a10.93,10.93,0,0,1-.49,3.41,9.8,9.8,0,0,1-1.27,2.64,8.65,8.65,0,0,1-1.85,2,11.57,11.57,0,0,1-2.2,1.34,10.63,10.63,0,0,1-2.31.77,11.66,11.66,0,0,1-2.19.23h-2.25v10.1h-5.62V103h-2.23a11.68,11.68,0,0,1-2.2-.23,11.14,11.14,0,0,1-4.51-2.11,8.92,8.92,0,0,1-1.86-2A9.8,9.8,0,0,1,267.86,96a11.15,11.15,0,0,1-.48-3.39V82.34H273V92.63a5.27,5.27,0,0,0,.34,2,4.32,4.32,0,0,0,1,1.49,4.18,4.18,0,0,0,1.51,1,5.63,5.63,0,0,0,2,.33h10.06c.52-.08,1.07-.19,1.63-.33a4.3,4.3,0,0,0,1.52-.7A3.7,3.7,0,0,0,292.09,95a5.11,5.11,0,0,0,.45-2.33V82.34h5.58Z"/><line class="cls-2" x1="193.81" y1="31.05" x2="93.43" y2="31.05"/><path class="cls-2" d="M93.43,11h20s10.4-.1,20,9.41C144.74,31.59,146.88,31,156.69,31H177.9"/><path class="cls-2" d="M206.58,31.05h-20s-10.4-.11-20,9.4c-11.26,11.15-13.4,10.61-23.21,10.61H122.11"/><circle class="cls-3" cx="93.42" cy="10.83" r="6.9"/><circle class="cls-4" cx="93.42" cy="31.05" r="6.9"/><circle class="cls-5" cx="122.11" cy="51.06" r="6.9"/><circle class="cls-4" cx="206.58" cy="31.05" r="6.9"/></svg>